<svg width="184" height="42" viewBox="0 0 184 42" fill="none" xmlns="http://www.w3.org/2000/svg">
<circle cx="28.5" cy="31.5" r="5.5" fill="black"/>
<path d="M5 1H28C29.3261 1 30.5979 1.51424 31.5355 2.4296C32.4732 3.34495 33 4.58644 33 5.88095V19.1825C30.721 18.4617 28.2823 18.3697 25.953 18.9165C23.6238 19.4634 21.4947 20.628 19.8007 22.2816C18.1067 23.9353 16.9138 26.0137 16.3535 28.2875C15.7933 30.5612 15.8876 32.9419 16.626 35.1667H3C3 35.6845 3.21071 36.1811 3.58579 36.5472C3.96086 36.9134 4.46957 37.119 5 37.119H17.464C18.0366 38.1902 18.7626 39.1763 19.62 40.0476H5C3.67392 40.0476 2.40215 39.5334 1.46447 38.618C0.526784 37.7027 0 36.4612 0 35.1667V5.88095C0 4.58644 0.526784 3.34495 1.46447 2.4296C2.40215 1.51424 3.67392 1 5 1V1ZM8 6.85714C7.46957 6.85714 6.96086 7.06284 6.58579 7.42898C6.21071 7.79512 6 8.29172 6 8.80952V10.7619C6 11.2797 6.21071 11.7763 6.58579 12.1424C6.96086 12.5086 7.46957 12.7143 8 12.7143H24C24.5304 12.7143 25.0391 12.5086 25.4142 12.1424C25.7893 11.7763 26 11.2797 26 10.7619V8.80952C26 8.29172 25.7893 7.79512 25.4142 7.42898C25.0391 7.06284 24.5304 6.85714 24 6.85714H8ZM40 31.2619C40 28.414 38.8411 25.6827 36.7782 23.6689C34.7153 21.6551 31.9174 20.5238 29 20.5238C26.0826 20.5238 23.2847 21.6551 21.2218 23.6689C19.1589 25.6827 18 28.414 18 31.2619C18 34.1098 19.1589 36.8411 21.2218 38.8549C23.2847 40.8687 26.0826 42 29 42C31.9174 42 34.7153 40.8687 36.7782 38.8549C38.8411 36.8411 40 34.1098 40 31.2619ZM27.828 26.5703L33.44 30.1627C33.6139 30.2717 33.7565 30.422 33.8545 30.5996C33.9525 30.7772 34.0025 30.9763 34 31.178C34.0002 31.3809 33.9509 31.5811 33.856 31.7617C33.7665 31.9405 33.6298 32.0928 33.46 32.203L27.846 35.9418C27.7483 36.0059 27.642 36.0565 27.53 36.0921C27.2701 36.1731 26.9886 36.1571 26.74 36.0472C26.5967 35.9817 26.4661 35.8925 26.354 35.7836C26.2457 35.6685 26.1578 35.5365 26.094 35.3931C26.0315 35.2465 25.9996 35.0892 26 34.9304V27.5934C25.999 27.3585 26.0678 27.1283 26.198 26.9308C26.3283 26.7332 26.5145 26.5768 26.734 26.4805C26.9084 26.4008 27.1011 26.3669 27.293 26.3823C27.4849 26.3977 27.6693 26.4619 27.828 26.5684V26.5703Z" fill="#FBC105"/>
<path d="M60.9049 18.199H66.9729V29.843C65.4149 31.0183 63.6109 31.9203 61.5609 32.549C59.5109 33.1777 57.4472 33.492 55.3699 33.492C52.3906 33.492 49.7119 32.8633 47.3339 31.606C44.9559 30.3213 43.0836 28.5583 41.7169 26.317C40.3776 24.0483 39.7079 21.4927 39.7079 18.65C39.7079 15.8073 40.3776 13.2653 41.7169 11.024C43.0836 8.75533 44.9696 6.99233 47.3749 5.735C49.7802 4.45033 52.4862 3.808 55.4929 3.808C58.0076 3.808 60.2899 4.23167 62.3399 5.079C64.3899 5.92633 66.1119 7.15633 67.5059 8.769L63.2419 12.705C61.1919 10.5457 58.7182 9.466 55.8209 9.466C53.9896 9.466 52.3632 9.84867 50.9419 10.614C49.5206 11.3793 48.4136 12.459 47.6209 13.853C46.8282 15.247 46.4319 16.846 46.4319 18.65C46.4319 20.4267 46.8282 22.012 47.6209 23.406C48.4136 24.8 49.5069 25.8933 50.9009 26.686C52.3222 27.4513 53.9349 27.834 55.7389 27.834C57.6522 27.834 59.3742 27.424 60.9049 26.604V18.199ZM83.1877 33.328C80.8644 33.328 78.7734 32.8497 76.9147 31.893C75.0834 30.909 73.6484 29.556 72.6097 27.834C71.5711 26.112 71.0517 24.1577 71.0517 21.971C71.0517 19.7843 71.5711 17.83 72.6097 16.108C73.6484 14.386 75.0834 13.0467 76.9147 12.09C78.7734 11.106 80.8644 10.614 83.1877 10.614C85.5111 10.614 87.5884 11.106 89.4197 12.09C91.2511 13.0467 92.6861 14.386 93.7247 16.108C94.7634 17.83 95.2827 19.7843 95.2827 21.971C95.2827 24.1577 94.7634 26.112 93.7247 27.834C92.6861 29.556 91.2511 30.909 89.4197 31.893C87.5884 32.8497 85.5111 33.328 83.1877 33.328ZM83.1877 28.08C84.8277 28.08 86.1671 27.5333 87.2057 26.44C88.2717 25.3193 88.8047 23.8297 88.8047 21.971C88.8047 20.1123 88.2717 18.6363 87.2057 17.543C86.1671 16.4223 84.8277 15.862 83.1877 15.862C81.5477 15.862 80.1947 16.4223 79.1287 17.543C78.0627 18.6363 77.5297 20.1123 77.5297 21.971C77.5297 23.8297 78.0627 25.3193 79.1287 26.44C80.1947 27.5333 81.5477 28.08 83.1877 28.08Z" fill="black"/>
<path d="M105.954 9.712H96.77V4.3H121.78V9.712H112.596V33H105.954V9.712ZM124.422 10.942H130.818V33H124.422V10.942ZM127.62 7.867C126.445 7.867 125.488 7.52533 124.75 6.842C124.012 6.15867 123.643 5.31133 123.643 4.3C123.643 3.28866 124.012 2.44133 124.75 1.758C125.488 1.07466 126.445 0.732998 127.62 0.732998C128.796 0.732998 129.752 1.061 130.49 1.717C131.228 2.373 131.597 3.193 131.597 4.177C131.597 5.243 131.228 6.13133 130.49 6.842C129.752 7.52533 128.796 7.867 127.62 7.867ZM149.792 10.614C151.842 10.614 153.701 11.0923 155.368 12.049C157.063 12.9783 158.389 14.304 159.345 16.026C160.302 17.7207 160.78 19.7023 160.78 21.971C160.78 24.2397 160.302 26.235 159.345 27.957C158.389 29.6517 157.063 30.9773 155.368 31.934C153.701 32.8633 151.842 33.328 149.792 33.328C146.977 33.328 144.763 32.4397 143.15 30.663V40.954H136.754V10.942H142.863V13.484C144.449 11.5707 146.758 10.614 149.792 10.614ZM148.685 28.08C150.325 28.08 151.665 27.5333 152.703 26.44C153.769 25.3193 154.302 23.8297 154.302 21.971C154.302 20.1123 153.769 18.6363 152.703 17.543C151.665 16.4223 150.325 15.862 148.685 15.862C147.045 15.862 145.692 16.4223 144.626 17.543C143.588 18.6363 143.068 20.1123 143.068 21.971C143.068 23.8297 143.588 25.3193 144.626 26.44C145.692 27.5333 147.045 28.08 148.685 28.08ZM172.483 33.328C170.652 33.328 168.861 33.1093 167.112 32.672C165.363 32.2073 163.969 31.6333 162.93 30.95L165.062 26.358C166.046 26.9867 167.235 27.506 168.629 27.916C170.023 28.2987 171.39 28.49 172.729 28.49C175.435 28.49 176.788 27.8203 176.788 26.481C176.788 25.8523 176.419 25.4013 175.681 25.128C174.943 24.8547 173.809 24.6223 172.278 24.431C170.474 24.1577 168.984 23.8433 167.809 23.488C166.634 23.1327 165.609 22.504 164.734 21.602C163.887 20.7 163.463 19.4153 163.463 17.748C163.463 16.354 163.859 15.124 164.652 14.058C165.472 12.9647 166.647 12.1173 168.178 11.516C169.736 10.9147 171.567 10.614 173.672 10.614C175.23 10.614 176.774 10.7917 178.305 11.147C179.863 11.475 181.148 11.9397 182.159 12.541L180.027 17.092C178.086 15.9987 175.968 15.452 173.672 15.452C172.305 15.452 171.28 15.6433 170.597 16.026C169.914 16.4087 169.572 16.9007 169.572 17.502C169.572 18.1853 169.941 18.6637 170.679 18.937C171.417 19.2103 172.592 19.47 174.205 19.716C176.009 20.0167 177.485 20.3447 178.633 20.7C179.781 21.028 180.779 21.643 181.626 22.545C182.473 23.447 182.897 24.7043 182.897 26.317C182.897 27.6837 182.487 28.9 181.667 29.966C180.847 31.032 179.644 31.8657 178.059 32.467C176.501 33.041 174.642 33.328 172.483 33.328Z" fill="#FBC105"/>
</svg>
