<svg width="75" height="50" viewBox="0 0 75 50" fill="none" xmlns="http://www.w3.org/2000/svg">
<path d="M10.6087 44.7877C24.7546 51.7373 47.6877 51.7373 61.8318 44.7877C75.976 37.8382 75.9777 26.5699 61.8318 19.6204C47.686 12.6708 24.7529 12.6708 10.6087 19.6204C-3.5354 26.5699 -3.53709 37.8382 10.6087 44.7877Z" fill="#FAFAFA"/>
<path d="M44.5616 35.3794C41.234 37.1847 41.234 40.1141 44.5616 41.921C47.8891 43.7278 53.2814 43.7278 56.6089 41.921C59.9364 40.1141 59.9347 37.1847 56.6089 35.3794C53.2831 33.5742 47.8874 33.5726 44.5616 35.3794Z" fill="#EBEBEB"/>
<path d="M9.52734 9.48257L18.4413 6.87549L11.5836 11.3434L9.52734 9.48257Z" fill="#FBC105"/>
<path d="M18.442 6.87605L8.84095 8.36536L6.78467 6.50293L18.442 6.87605Z" fill="#FBC105"/>
<path d="M8.84033 8.36479V10.5988L9.52745 9.48257L18.4414 6.87549L8.84033 8.36479Z" fill="#455A64"/>
<path d="M8.84033 10.5993L10.2129 10.104L9.52745 9.48315L8.84033 10.5993Z" fill="#FBC105"/>
<path d="M9.52734 9.48315L10.2128 10.104L9.9933 10.1818L9.52734 9.48315Z" fill="#455A64"/>
<path d="M7.36385 10.2629C7.33546 10.2634 7.30772 10.2549 7.28508 10.2388C7.26244 10.2227 7.24622 10.1999 7.23901 10.174C7.2318 10.1482 7.23404 10.1209 7.24535 10.0964C7.25666 10.0719 7.27639 10.0517 7.30138 10.039C7.45333 9.95961 7.60696 9.88022 7.7589 9.8183C7.77396 9.81063 7.79053 9.80592 7.80759 9.80445C7.82465 9.80298 7.84185 9.80478 7.85814 9.80974C7.87444 9.81471 7.8895 9.82273 7.9024 9.83332C7.91531 9.84391 7.9258 9.85686 7.93323 9.87138C7.94066 9.88589 7.94488 9.90167 7.94564 9.91777C7.9464 9.93386 7.94367 9.94994 7.93763 9.96501C7.9316 9.98009 7.92237 9.99386 7.91051 10.0055C7.89865 10.0171 7.8844 10.0263 7.86863 10.0326C7.72176 10.0993 7.5715 10.1708 7.42462 10.2486C7.40584 10.2578 7.38502 10.2626 7.36385 10.2629V10.2629Z" fill="#E0E0E0"/>
<path d="M5.80489 23.0858C5.77901 23.0861 5.75368 23.0789 5.73229 23.0652C5.45772 22.8832 5.19761 22.6826 4.95401 22.465C4.93857 22.4556 4.9255 22.4431 4.91572 22.4285C4.90593 22.4138 4.89966 22.3973 4.89734 22.3801C4.89502 22.363 4.89671 22.3455 4.90229 22.329C4.90787 22.3125 4.9172 22.2974 4.92964 22.2846C4.94209 22.2719 4.95734 22.2618 4.97433 22.2552C4.99132 22.2485 5.00966 22.2455 5.02805 22.2462C5.04644 22.2469 5.06444 22.2513 5.08081 22.2592C5.09718 22.2671 5.11152 22.2783 5.12283 22.292C5.3578 22.5017 5.6089 22.6949 5.8741 22.8699C5.89596 22.8846 5.91228 22.9055 5.92069 22.9295C5.92911 22.9535 5.92918 22.9794 5.92091 23.0034C5.91264 23.0275 5.89645 23.0484 5.87468 23.0632C5.85291 23.078 5.82669 23.086 5.79982 23.0858H5.80489ZM4.4813 21.93C4.46261 21.9302 4.44411 21.9264 4.42716 21.919C4.41021 21.9116 4.39525 21.9007 4.38338 21.8871C4.17065 21.6429 3.97712 21.3845 3.80431 21.1139C3.78685 21.0867 3.78158 21.0541 3.78965 21.0233C3.79772 20.9925 3.81848 20.9659 3.84736 20.9495C3.87624 20.9331 3.91088 20.9281 3.94365 20.9357C3.97642 20.9433 4.00464 20.9629 4.0221 20.99C4.18855 21.251 4.37474 21.5004 4.57922 21.7363C4.60031 21.7605 4.61036 21.7917 4.6072 21.8229C4.60404 21.8541 4.58792 21.8829 4.56234 21.903C4.53972 21.9209 4.51091 21.9305 4.4813 21.93V21.93ZM3.53082 20.4851C3.50629 20.4853 3.48223 20.4788 3.46155 20.4664C3.44087 20.454 3.42446 20.4363 3.41433 20.4152C3.27637 20.1278 3.15796 19.8324 3.0598 19.5309C3.05259 19.5015 3.05747 19.4707 3.07345 19.4446C3.08944 19.4185 3.11533 19.3991 3.14593 19.3903C3.17653 19.3814 3.20956 19.3838 3.23837 19.3969C3.26718 19.41 3.28964 19.4329 3.30122 19.461C3.39454 19.7527 3.50732 20.0385 3.63887 20.3168C3.64594 20.3311 3.64994 20.3465 3.65062 20.3623C3.65131 20.378 3.64867 20.3937 3.64286 20.4085C3.63705 20.4232 3.62818 20.4368 3.61678 20.4483C3.60537 20.4598 3.59165 20.4691 3.5764 20.4756C3.56203 20.4816 3.54653 20.4848 3.53082 20.4851ZM2.98214 18.864C2.95285 18.8638 2.92457 18.854 2.9021 18.8363C2.87963 18.8187 2.86436 18.7942 2.8589 18.7672C2.79445 18.4587 2.74879 18.147 2.72215 17.8336C2.71946 17.802 2.73022 17.7707 2.75207 17.7466C2.77392 17.7225 2.80505 17.7075 2.83864 17.705C2.87222 17.7024 2.90549 17.7126 2.93114 17.7331C2.95678 17.7537 2.9727 17.7829 2.97538 17.8145C3.00022 18.1189 3.04419 18.4216 3.10707 18.7211C3.1105 18.7365 3.11063 18.7523 3.10745 18.7677C3.10428 18.7831 3.09786 18.7977 3.08858 18.8107C3.07929 18.8237 3.06734 18.8349 3.05341 18.8435C3.03947 18.8521 3.02385 18.858 3.00746 18.8608L2.98214 18.864ZM2.82175 17.1683C2.80506 17.1683 2.78853 17.1652 2.77315 17.1591C2.75777 17.153 2.74384 17.144 2.7322 17.1328C2.72055 17.1215 2.71142 17.1082 2.70535 17.0936C2.69927 17.079 2.69637 17.0633 2.69682 17.0476C2.70077 16.7334 2.72332 16.4196 2.76435 16.1077C2.76455 16.091 2.76849 16.0744 2.77593 16.0592C2.78337 16.044 2.79414 16.0305 2.80753 16.0194C2.82092 16.0084 2.83663 16.0001 2.85364 15.9952C2.87065 15.9903 2.88858 15.9888 2.90625 15.9908C2.92392 15.9928 2.94094 15.9983 2.9562 16.0069C2.97146 16.0156 2.98461 16.0271 2.9948 16.0408C3.00499 16.0546 3.01198 16.0702 3.01533 16.0866C3.01867 16.1031 3.01829 16.12 3.01421 16.1363C2.97518 16.4398 2.95376 16.7451 2.95006 17.0508C2.94984 17.0665 2.94635 17.0819 2.93978 17.0963C2.93321 17.1106 2.9237 17.1236 2.91178 17.1346C2.89987 17.1455 2.88579 17.1541 2.87034 17.1599C2.85489 17.1656 2.83838 17.1685 2.82175 17.1683V17.1683ZM3.02772 15.4774C3.01822 15.4789 3.00852 15.4789 2.99902 15.4774C2.96639 15.4705 2.93797 15.4518 2.91994 15.4254C2.90192 15.3989 2.89575 15.3668 2.90279 15.3361C2.97676 15.0285 3.0715 14.7257 3.18641 14.4294C3.19201 14.414 3.20092 14.3998 3.21261 14.3877C3.22429 14.3756 3.23849 14.3659 3.25432 14.3592C3.27015 14.3525 3.28728 14.349 3.30464 14.3487C3.32201 14.3485 3.33923 14.3517 3.35524 14.358C3.37153 14.3635 3.38648 14.3719 3.39919 14.383C3.4119 14.394 3.42211 14.4073 3.42921 14.4222C3.4363 14.437 3.44014 14.453 3.44048 14.4693C3.44083 14.4855 3.43767 14.5017 3.43121 14.5168C3.32044 14.8032 3.22909 15.0959 3.15771 15.3932C3.14938 15.419 3.13198 15.4414 3.10836 15.4567C3.08475 15.4719 3.05632 15.4792 3.02772 15.4774V15.4774ZM3.62874 13.8737C3.60927 13.8745 3.58998 13.8701 3.57302 13.861C3.55792 13.8544 3.54437 13.845 3.53319 13.8334C3.522 13.8218 3.5134 13.8082 3.5079 13.7934C3.50239 13.7786 3.50009 13.7629 3.50112 13.7472C3.50216 13.7316 3.50652 13.7163 3.51393 13.7023C3.66129 13.4193 3.82705 13.1452 4.01028 12.8814C4.02873 12.8568 4.0564 12.8397 4.08772 12.8335C4.11904 12.8273 4.15169 12.8325 4.1791 12.8481C4.20586 12.8649 4.22467 12.8908 4.23159 12.9204C4.23851 12.95 4.23301 12.981 4.21625 13.0068C4.03815 13.2616 3.87744 13.5268 3.7351 13.8007C3.72636 13.821 3.71177 13.8386 3.69298 13.8515C3.67419 13.8644 3.65194 13.8721 3.62874 13.8737V13.8737ZM4.59948 12.4448C4.57124 12.445 4.54378 12.4361 4.52182 12.4194C4.50866 12.4096 4.49768 12.3975 4.48953 12.3838C4.48138 12.37 4.47621 12.3548 4.47432 12.3392C4.47244 12.3235 4.47388 12.3077 4.47855 12.2926C4.48323 12.2774 4.49105 12.2633 4.50156 12.2511C4.71253 12.0059 4.93799 11.7722 5.17686 11.5509C5.2006 11.5286 5.23278 11.516 5.26634 11.516C5.29989 11.516 5.33207 11.5286 5.35581 11.5509C5.37952 11.5732 5.39284 11.6035 5.39284 11.635C5.39284 11.6666 5.37952 11.6968 5.35581 11.7192C5.12574 11.935 4.9082 12.1624 4.70415 12.4003C4.69107 12.4139 4.67479 12.4244 4.65662 12.431C4.63844 12.4377 4.61888 12.4402 4.59948 12.4384V12.4448ZM5.86904 11.2254C5.85063 11.2253 5.83246 11.2215 5.81583 11.2141C5.79919 11.2067 5.7845 11.1959 5.77281 11.1825C5.75142 11.1582 5.74104 11.1269 5.74388 11.0954C5.74672 11.064 5.76256 11.0348 5.788 11.0142C6.04501 10.8132 6.31266 10.6246 6.58992 10.449C6.61714 10.4333 6.64965 10.4278 6.68096 10.4337C6.71226 10.4396 6.74005 10.4564 6.75875 10.4807C6.77759 10.5071 6.78461 10.5394 6.77829 10.5706C6.77197 10.6018 6.75281 10.6294 6.72498 10.6474C6.45448 10.8183 6.19357 11.0022 5.94332 11.1984C5.92212 11.2144 5.89617 11.2238 5.86904 11.2254V11.2254Z" fill="#E0E0E0"/>
<path d="M6.9667 23.706C6.94858 23.7061 6.93067 23.7023 6.91437 23.6949C6.75736 23.6282 6.60204 23.5567 6.45347 23.4805C6.43895 23.4733 6.42607 23.4635 6.41558 23.4517C6.40508 23.4398 6.39718 23.4261 6.39232 23.4113C6.38746 23.3966 6.38574 23.3811 6.38725 23.3657C6.38876 23.3504 6.39348 23.3354 6.40114 23.3218C6.4169 23.2945 6.44337 23.2741 6.47491 23.2649C6.50644 23.2557 6.54055 23.2584 6.56996 23.2725C6.71515 23.3456 6.86541 23.4154 7.01735 23.4805C7.04341 23.4919 7.06456 23.5113 7.07735 23.5355C7.09013 23.5597 7.09378 23.5873 7.08769 23.6137C7.0816 23.6401 7.06614 23.6638 7.04384 23.6809C7.02155 23.6979 6.99375 23.7074 6.96501 23.7076L6.9667 23.706Z" fill="#E0E0E0"/>
<path d="M64.7134 17.9444L71.8547 13.6448L74.9999 14.5942L64.7134 17.9444Z" fill="#FBC105"/>
<path d="M64.7134 17.9447L70.8856 13.1053L69.5131 11.616L64.7134 17.9447Z" fill="#FBC105"/>
<path d="M70.8856 13.1047V14.2273L64.7134 17.9442L70.8856 13.1047Z" fill="#455A64"/>
<path d="M72.2771 12.6365C72.2465 12.6366 72.2169 12.6258 72.1944 12.6063C72.1694 12.5853 72.1542 12.5559 72.152 12.5244C72.1498 12.493 72.1608 12.4619 72.1826 12.438C72.4024 12.2074 72.5975 11.9569 72.765 11.6902C72.782 11.6628 72.8099 11.6429 72.8425 11.6349C72.8751 11.6268 72.9098 11.6313 72.9389 11.6473C72.968 11.6633 72.9892 11.6895 72.9977 11.7202C73.0063 11.7509 73.0015 11.7835 72.9845 11.8108C72.8077 12.0904 72.603 12.3536 72.3733 12.5968C72.3613 12.6095 72.3464 12.6196 72.3298 12.6265C72.3132 12.6333 72.2952 12.6367 72.2771 12.6365ZM73.2428 11.1567C73.2277 11.159 73.2123 11.159 73.1972 11.1567C73.1812 11.1509 73.1666 11.1422 73.1543 11.131C73.142 11.1198 73.1323 11.1064 73.1257 11.0916C73.119 11.0767 73.1157 11.0608 73.1158 11.0447C73.1159 11.0286 73.1195 11.0127 73.1263 10.9979C73.2456 10.7087 73.3349 10.4094 73.393 10.104C73.3991 10.0729 73.4181 10.0452 73.4458 10.0272C73.4735 10.0092 73.5076 10.0023 73.5408 10.008C73.5739 10.0136 73.6033 10.0315 73.6224 10.0575C73.6416 10.0836 73.649 10.1157 73.6429 10.1469C73.5807 10.4668 73.4863 10.7805 73.361 11.0837C73.3514 11.1056 73.335 11.1244 73.3139 11.1374C73.2928 11.1505 73.268 11.1572 73.2428 11.1567V11.1567ZM73.6041 9.45304C73.5875 9.45284 73.5712 9.44954 73.556 9.44334C73.5408 9.43715 73.5271 9.42818 73.5156 9.41695C73.5042 9.40572 73.4952 9.39246 73.4892 9.37794C73.4832 9.36342 73.4804 9.34793 73.4808 9.33237C73.4808 9.29109 73.4808 9.24981 73.4808 9.20853C73.4801 8.93898 73.4575 8.66987 73.4133 8.40354C73.4084 8.37221 73.4169 8.34033 73.4368 8.31479C73.4567 8.28925 73.4864 8.27208 73.5197 8.26699C73.5529 8.26283 73.5866 8.27092 73.6136 8.28956C73.6407 8.3082 73.659 8.33596 73.6649 8.36702C73.7105 8.64548 73.7336 8.92679 73.7341 9.20853C73.7341 9.2514 73.7341 9.29427 73.7341 9.33714C73.7328 9.36858 73.7184 9.3983 73.6941 9.41995C73.6699 9.44161 73.6375 9.45348 73.6041 9.45304V9.45304ZM73.3492 7.73193C73.322 7.73184 73.2956 7.72342 73.2739 7.70795C73.2523 7.69248 73.2366 7.6708 73.2293 7.64619C73.1324 7.34827 73.0111 7.0579 72.8663 6.77769C72.8589 6.76365 72.8545 6.74836 72.8535 6.73271C72.8525 6.71707 72.8548 6.70139 72.8603 6.68659C72.8658 6.67179 72.8744 6.65818 72.8856 6.64656C72.8968 6.63494 72.9103 6.62554 72.9254 6.61892C72.9556 6.60527 72.9904 6.60345 73.022 6.61387C73.0537 6.62429 73.0796 6.64609 73.0942 6.67449C73.2452 6.96567 73.3711 7.26778 73.4707 7.57791C73.4756 7.59282 73.4773 7.6085 73.4758 7.62403C73.4742 7.63957 73.4693 7.65465 73.4614 7.66839C73.4536 7.68214 73.4429 7.69428 73.43 7.7041C73.4171 7.71391 73.4022 7.72122 73.3863 7.72558C73.3745 7.72998 73.3619 7.73214 73.3492 7.73193V7.73193ZM72.5658 6.1553C72.5445 6.15548 72.5235 6.15045 72.5048 6.14071C72.4862 6.13097 72.4705 6.11685 72.4594 6.09972C72.2784 5.83843 72.0794 5.58862 71.8635 5.3519C71.8526 5.34003 71.8443 5.32625 71.8391 5.31136C71.8339 5.29646 71.8318 5.28074 71.8331 5.26511C71.8343 5.24947 71.8388 5.23422 71.8464 5.22023C71.8539 5.20624 71.8643 5.19379 71.877 5.18359C71.8895 5.17339 71.904 5.16562 71.9197 5.16073C71.9354 5.15584 71.952 5.15393 71.9685 5.15511C71.9849 5.15629 72.001 5.16054 72.0158 5.16761C72.0305 5.17468 72.0436 5.18443 72.0543 5.1963C72.2784 5.44132 72.4848 5.70018 72.6722 5.97112C72.6877 5.99726 72.6926 6.02788 72.6857 6.05715C72.6789 6.08642 72.6608 6.11231 72.635 6.12989C72.6148 6.14386 72.5908 6.15213 72.5658 6.15371V6.1553ZM71.384 4.82C71.3518 4.8199 71.3209 4.80793 71.2979 4.78666C71.0548 4.57267 70.7995 4.37126 70.5332 4.18332C70.5199 4.17393 70.5086 4.16218 70.5002 4.14872C70.4917 4.13527 70.4861 4.12037 70.4838 4.10489C70.4814 4.08941 70.4823 4.07364 70.4865 4.0585C70.4906 4.04335 70.4979 4.02911 70.5078 4.0166C70.5178 4.00409 70.5303 3.99355 70.5446 3.98558C70.5589 3.97762 70.5748 3.97238 70.5912 3.97017C70.6077 3.96796 70.6244 3.96881 70.6405 3.97269C70.6567 3.97658 70.6718 3.9834 70.6851 3.99278C70.9595 4.18568 71.2222 4.39295 71.4718 4.61359C71.4906 4.62996 71.5037 4.65129 71.5093 4.67478C71.5149 4.69827 71.5128 4.7228 71.5033 4.74516C71.4938 4.76751 71.4773 4.78663 71.456 4.79999C71.4347 4.81335 71.4096 4.82033 71.384 4.82V4.82ZM69.9034 3.76256C69.8795 3.76235 69.856 3.75574 69.8359 3.74351C69.7211 3.67682 69.6012 3.61014 69.4797 3.54504C69.3109 3.45613 69.142 3.36721 68.9631 3.28306C68.9467 3.2769 68.932 3.26761 68.9197 3.25577C68.9074 3.24393 68.8978 3.22981 68.8916 3.21431C68.8855 3.19881 68.8828 3.18227 68.8838 3.16574C68.8848 3.14921 68.8895 3.13307 68.8975 3.11833C68.9055 3.10359 68.9167 3.09058 68.9303 3.08014C68.944 3.0697 68.9598 3.06205 68.9768 3.05768C68.9938 3.05331 69.0115 3.05232 69.0289 3.05476C69.0463 3.05721 69.063 3.06305 69.0779 3.07189C69.2552 3.15763 69.4324 3.24655 69.6046 3.33863C69.7296 3.40373 69.8511 3.47201 69.9693 3.54187C69.9966 3.55824 70.0161 3.58383 70.024 3.61335C70.0318 3.64288 70.0274 3.67412 70.0115 3.70064C70.0006 3.71876 69.9849 3.73396 69.966 3.7448C69.9471 3.75564 69.9256 3.76175 69.9034 3.76256V3.76256ZM54.7683 3.68159C54.746 3.68136 54.7242 3.67568 54.7049 3.6651C54.6857 3.65452 54.6697 3.63941 54.6586 3.62125C54.6426 3.59444 54.6384 3.5628 54.6469 3.53312C54.6554 3.50343 54.676 3.47807 54.7042 3.46248C54.9979 3.3037 55.3001 3.14493 55.6057 3.01156C55.6357 2.9978 55.6703 2.99575 55.7019 3.00586C55.7335 3.01597 55.7596 3.03742 55.7745 3.06554C55.7886 3.09403 55.7903 3.12656 55.7792 3.15621C55.7682 3.18586 55.7453 3.21029 55.7154 3.22432C55.4149 3.36245 55.1178 3.51011 54.8291 3.6673C54.8102 3.67594 54.7893 3.67978 54.7683 3.67841V3.68159ZM68.2574 2.95599C68.2398 2.95609 68.2225 2.95228 68.2068 2.94487C67.9029 2.81944 67.5889 2.70195 67.2748 2.59716C67.243 2.58642 67.2171 2.56424 67.2027 2.53551C67.1883 2.50678 67.1866 2.47384 67.198 2.44394C67.2094 2.41404 67.233 2.38963 67.2636 2.37609C67.2941 2.36254 67.3292 2.36096 67.3609 2.3717C67.68 2.47966 67.9991 2.59875 68.3097 2.72735C68.3368 2.73819 68.359 2.75755 68.3726 2.78212C68.3861 2.8067 68.3902 2.83494 68.384 2.862C68.3778 2.88906 68.3617 2.91324 68.3386 2.93039C68.3156 2.94755 68.2868 2.9566 68.2574 2.95599V2.95599ZM56.4312 2.90677C56.4063 2.90693 56.3818 2.90005 56.3611 2.88704C56.3403 2.87402 56.3242 2.85545 56.3147 2.83373C56.3078 2.81917 56.3041 2.80345 56.3037 2.7875C56.3034 2.77156 56.3065 2.75571 56.3128 2.7409C56.3191 2.72609 56.3285 2.71262 56.3404 2.7013C56.3523 2.68997 56.3666 2.68101 56.3823 2.67496C56.6946 2.55111 57.0154 2.4368 57.3361 2.33359C57.3522 2.32731 57.3696 2.32423 57.387 2.32455C57.4045 2.32486 57.4217 2.32856 57.4375 2.33542C57.4534 2.34228 57.4675 2.35214 57.4791 2.3644C57.4907 2.37665 57.4995 2.39103 57.505 2.40663C57.5111 2.42193 57.5139 2.43824 57.5132 2.45459C57.5125 2.47094 57.5084 2.48699 57.501 2.5018C57.4936 2.5166 57.4831 2.52986 57.4702 2.54079C57.4572 2.55171 57.4421 2.56008 57.4256 2.5654C57.1099 2.66702 56.7925 2.77975 56.4869 2.90042C56.4688 2.90516 56.4498 2.90624 56.4312 2.90359V2.90677ZM66.5151 2.35741C66.5034 2.35895 66.4914 2.35895 66.4797 2.35741C66.1606 2.27008 65.8331 2.19863 65.5072 2.12401C65.4909 2.12067 65.4755 2.11435 65.4618 2.1054C65.4481 2.09646 65.4364 2.08506 65.4274 2.07187C65.4184 2.05867 65.4122 2.04393 65.4093 2.0285C65.4063 2.01306 65.4066 1.99723 65.4102 1.98191C65.4137 1.96658 65.4204 1.95206 65.43 1.93918C65.4395 1.9263 65.4516 1.91531 65.4656 1.90683C65.4796 1.89835 65.4953 1.89255 65.5117 1.88977C65.5281 1.88699 65.545 1.88727 65.5613 1.89061C65.8989 1.95888 66.2264 2.03986 66.5506 2.12877C66.5798 2.1368 66.605 2.15448 66.6216 2.17857C66.6381 2.20267 66.6448 2.23155 66.6405 2.25993C66.6362 2.28831 66.6211 2.31427 66.5981 2.33305C66.5751 2.35183 66.5456 2.36217 66.5151 2.36217V2.35741ZM58.1836 2.33359C58.156 2.33349 58.1292 2.32491 58.1072 2.30914C58.0853 2.29338 58.0694 2.2713 58.0621 2.24627C58.0574 2.23136 58.056 2.21573 58.0578 2.2003C58.0596 2.18486 58.0647 2.16992 58.0727 2.15634C58.0807 2.14275 58.0915 2.1308 58.1045 2.12116C58.1174 2.11152 58.1323 2.1044 58.1482 2.10019C58.474 2.01445 58.8083 1.94142 59.1409 1.87156C59.1577 1.8665 59.1755 1.86482 59.1931 1.86662C59.2107 1.86843 59.2277 1.87368 59.243 1.88204C59.2583 1.89039 59.2715 1.90167 59.2819 1.91515C59.2923 1.92862 59.2995 1.94399 59.3032 1.96027C59.3069 1.97654 59.3069 1.99336 59.3032 2.00964C59.2996 2.02592 59.2923 2.04129 59.282 2.05477C59.2716 2.06826 59.2583 2.07955 59.2431 2.08792C59.2278 2.09629 59.2108 2.10155 59.1932 2.10337C58.8657 2.16847 58.5382 2.24468 58.2174 2.32883L58.1836 2.33359ZM64.7053 1.97476H64.68C64.3508 1.92554 64.0148 1.88585 63.6839 1.85727C63.6665 1.85709 63.6493 1.85352 63.6334 1.8468C63.6175 1.84007 63.6032 1.83032 63.5915 1.81817C63.5798 1.80602 63.5709 1.79173 63.5653 1.77618C63.5598 1.76064 63.5577 1.74418 63.5592 1.72784C63.5607 1.7115 63.5658 1.69564 63.5741 1.68123C63.5825 1.66683 63.5939 1.6542 63.6077 1.64415C63.6214 1.63409 63.6373 1.62681 63.6542 1.62277C63.6711 1.61874 63.6887 1.61803 63.7059 1.62069C64.0435 1.64927 64.3812 1.68897 64.7188 1.73978C64.7518 1.74523 64.7811 1.76255 64.8007 1.78805C64.8202 1.81355 64.8284 1.84522 64.8235 1.87632C64.8176 1.90202 64.8028 1.92514 64.7814 1.94208C64.76 1.95903 64.7333 1.96884 64.7053 1.97V1.97476ZM59.9968 1.96365C59.9667 1.96363 59.9377 1.95356 59.9148 1.93524C59.8919 1.91691 59.8767 1.89153 59.8719 1.86362C59.867 1.83229 59.8754 1.80041 59.8953 1.77487C59.9152 1.74932 59.945 1.73216 59.9782 1.72707C60.3159 1.67944 60.6535 1.63975 60.9912 1.61276C61.0078 1.6114 61.0246 1.61314 61.0405 1.61787C61.0564 1.6226 61.0712 1.63024 61.0839 1.64034C61.0967 1.65043 61.1072 1.6628 61.1149 1.67673C61.1226 1.69066 61.1273 1.70588 61.1288 1.72152C61.1302 1.73715 61.1284 1.75291 61.1233 1.76787C61.1183 1.78284 61.1102 1.79673 61.0994 1.80874C61.0887 1.82076 61.0756 1.83067 61.0608 1.8379C61.0459 1.84514 61.0298 1.84956 61.0131 1.85092C60.6755 1.87791 60.3463 1.91443 60.0171 1.96365H59.9968ZM62.8584 1.80487C62.5207 1.79376 62.1831 1.79217 61.8539 1.80487C61.8373 1.80573 61.8207 1.80342 61.805 1.79808C61.7894 1.79274 61.7751 1.78448 61.7629 1.7738C61.7508 1.76312 61.7411 1.75024 61.7344 1.73593C61.7276 1.72163 61.7241 1.70619 61.7239 1.69055C61.7232 1.67486 61.7259 1.6592 61.7317 1.6445C61.7376 1.62979 61.7466 1.61634 61.758 1.60495C61.7695 1.59355 61.7833 1.58443 61.7986 1.57814C61.8139 1.57184 61.8304 1.5685 61.8471 1.5683C62.1848 1.55718 62.5224 1.55877 62.8601 1.5683C62.8767 1.56871 62.8931 1.5722 62.9083 1.57857C62.9235 1.58493 62.9372 1.59406 62.9486 1.60541C62.9601 1.61676 62.969 1.63013 62.975 1.64474C62.9809 1.65935 62.9838 1.67492 62.9833 1.69055C62.9808 1.72034 62.9667 1.74819 62.9436 1.76872C62.9205 1.78925 62.8901 1.801 62.8584 1.8017V1.80487Z" fill="#E0E0E0"/>
<path d="M62.2224 20.2652V20.0112H62.1565C62.0563 19.8391 61.9042 19.6988 61.7193 19.6079C61.3421 19.4278 60.9251 19.334 60.5021 19.334C60.0791 19.334 59.662 19.4278 59.2848 19.6079C59.1 19.6988 58.9478 19.8391 58.8476 20.0112H58.7817V20.2573C58.7817 20.5002 58.9506 20.7447 59.2882 20.9305C59.6657 21.1097 60.0826 21.203 60.5054 21.203C60.9283 21.203 61.3452 21.1097 61.7227 20.9305C62.0569 20.7511 62.2241 20.5065 62.2224 20.2652Z" fill="#37474F"/>
<path d="M60.5021 20.9468C61.4522 20.9468 62.2224 20.5281 62.2224 20.0116C62.2224 19.4951 61.4522 19.0764 60.5021 19.0764C59.552 19.0764 58.7817 19.4951 58.7817 20.0116C58.7817 20.5281 59.552 20.9468 60.5021 20.9468Z" fill="#455A64"/>
<path d="M60.0601 12.2246V19.9014C60.0637 19.9378 60.0774 19.9727 60.1 20.0025C60.1225 20.0323 60.153 20.056 60.1884 20.0712C60.2855 20.1174 60.3927 20.1415 60.5015 20.1415C60.6103 20.1415 60.7176 20.1174 60.8147 20.0712C60.8505 20.0564 60.8814 20.0328 60.9043 20.0029C60.9272 19.9731 60.9411 19.938 60.9447 19.9014V12.2246H60.0601Z" fill="#37474F"/>
<path d="M62.487 6.47886C62.0565 6.24546 61.6648 6.22641 61.3711 6.38042L55.9028 9.35268L58.6462 14.5271L64.133 11.5422V9.27806C64.133 8.22538 63.3953 6.97265 62.487 6.47886Z" fill="#455A64"/>
<path d="M58.6454 12.2609V14.5266L55.355 12.7388V10.4747C55.355 9.42203 56.0911 8.96952 56.9993 9.46331C57.5818 9.78086 58.0933 10.4064 58.3854 11.0923C58.5488 11.4632 58.637 11.8596 58.6454 12.2609Z" fill="#37474F"/>
<path d="M58.6454 12.2611V14.5268L55.355 12.739L58.3854 11.0925C58.5488 11.4634 58.637 11.8597 58.6454 12.2611Z" fill="#263238"/>
<path d="M58.0967 13.0378C57.7945 12.2154 56.8119 11.1484 55.902 10.6562C54.992 10.164 54.5024 10.4291 54.8046 11.2516L55.3533 12.7409L58.6454 14.5287C58.6454 14.5287 58.4006 13.8603 58.0967 13.0378Z" fill="#455A64"/>
<path d="M60.3614 12.3473L60.1774 12.2472C60.1379 12.2302 60.0942 12.2232 60.051 12.2271C60.0077 12.231 59.9662 12.2456 59.9309 12.2695C59.8292 12.3321 59.7446 12.4163 59.6839 12.5153C59.6232 12.6143 59.5881 12.7253 59.5814 12.8395C59.5768 12.8803 59.584 12.9216 59.6021 12.9591C59.6202 12.9965 59.6486 13.0286 59.6844 13.0522V13.0522L59.8532 13.1443L59.8853 13.0951C59.9204 13.088 59.954 13.0756 59.9849 13.0586C60.0866 12.9963 60.1712 12.9124 60.2319 12.8137C60.2927 12.7149 60.3278 12.6041 60.3344 12.4902C60.3342 12.4618 60.3303 12.4335 60.3226 12.406L60.3614 12.3473Z" fill="#263238"/>
<path d="M60.1058 12.3661C60.0042 12.4283 59.9195 12.5122 59.8588 12.611C59.7981 12.7098 59.763 12.8206 59.7563 12.9345C59.7563 13.1441 59.9134 13.2282 60.1058 13.1234C60.2076 13.0613 60.2923 12.9774 60.353 12.8786C60.4137 12.7799 60.4488 12.669 60.4553 12.555C60.4603 12.3455 60.2915 12.2613 60.1058 12.3661Z" fill="#37474F"/>
<path d="M60.1052 12.8342C60.0919 12.8342 60.0787 12.8317 60.0664 12.827C60.0541 12.8222 60.043 12.8152 60.0336 12.8063C60.0242 12.7975 60.0167 12.787 60.0116 12.7754C60.0065 12.7638 60.0039 12.7515 60.0039 12.7389V9.46343C60.0039 9.43816 60.0146 9.41393 60.0336 9.39607C60.0526 9.3782 60.0783 9.36816 60.1052 9.36816C60.1321 9.36816 60.1578 9.3782 60.1768 9.39607C60.1958 9.41393 60.2065 9.43816 60.2065 9.46343V12.7389C60.2065 12.7642 60.1958 12.7884 60.1768 12.8063C60.1578 12.8242 60.1321 12.8342 60.1052 12.8342V12.8342Z" fill="#263238"/>
<path d="M60.1958 9.54936V10.4036L61.1699 9.46362L60.1958 9.54936Z" fill="#37474F"/>
<path d="M8.9825 37.8843C8.89809 37.9272 7.34828 38.34 6.77427 37.6271C6.20027 36.9142 7.15413 35.8028 6.61558 35.3932C6.07703 34.9835 4.56773 35.3932 4.20476 34.5326C3.84179 33.672 4.9172 33.3005 4.31281 32.432C3.93126 31.8842 2.86429 31.5826 2.91325 31.0729C2.98416 30.3283 4.4428 30.1203 5.71574 30.9252C6.98868 31.7302 7.58294 31.0697 7.98643 31.0158C8.38993 30.9618 9.26106 31.0808 9.23405 32.4146C9.20704 33.7483 8.9825 37.8843 8.9825 37.8843Z" fill="#FBC105"/>
<path d="M9.08565 35.9936C9.06551 35.9935 9.04603 35.9868 9.03061 35.9746C9.01519 35.9624 9.00479 35.9456 9.00124 35.9269C8.55723 33.3865 5.42891 31.3336 3.80144 30.8922C3.79067 30.8894 3.7806 30.8847 3.77184 30.8782C3.76307 30.8717 3.75579 30.8637 3.75043 30.8545C3.74506 30.8453 3.74173 30.8351 3.74064 30.8247C3.73954 30.8143 3.7407 30.8037 3.74404 30.7937C3.75031 30.7735 3.76486 30.7565 3.78449 30.7464C3.80412 30.7362 3.82722 30.7339 3.84871 30.7397C5.51163 31.1923 8.71255 33.3024 9.16838 35.9015C9.1718 35.9221 9.16645 35.9432 9.1535 35.9601C9.14055 35.977 9.12102 35.9885 9.09916 35.992L9.08565 35.9936Z" fill="white"/>
<path d="M5.39579 33.8673C5.37722 33.8675 5.35911 33.8619 5.34426 33.8514C5.32942 33.8409 5.31866 33.8261 5.31366 33.8093C5.30866 33.7925 5.3097 33.7746 5.31661 33.7584C5.32352 33.7422 5.33592 33.7286 5.35189 33.7197C5.40254 33.6911 6.60795 33.029 7.7931 33.3386C7.81548 33.3441 7.83464 33.3577 7.84636 33.3765C7.85807 33.3952 7.86138 33.4176 7.85556 33.4386C7.84974 33.4597 7.83527 33.4777 7.81532 33.4887C7.79537 33.4997 7.77159 33.5029 7.7492 33.4974C6.63158 33.2052 5.44981 33.8546 5.43799 33.861C5.42486 33.8668 5.41021 33.869 5.39579 33.8673V33.8673Z" fill="white"/>
<path d="M53.1172 24.4696C53.7823 24.5554 54.9151 24.1933 54.9962 23.1518C55.0772 22.1102 55.5347 21.8276 56.3738 21.6577C57.2129 21.4878 57.4593 21.2131 57.5556 20.7178C57.6518 20.2224 57.0136 19.6302 57.1926 18.8839C57.3716 18.1377 57.9692 18.1393 58.5567 17.2962C58.9332 16.7532 58.1616 15.9244 56.8769 16.28C55.5921 16.6357 55.6951 17.4153 54.4104 17.5153C53.1256 17.6153 52.3203 18.3489 52.295 19.2618C52.2697 20.1748 53.1172 24.4696 53.1172 24.4696Z" fill="#FBC105"/>
<path opacity="0.2" d="M53.1172 24.4696C53.7823 24.5554 54.9151 24.1933 54.9962 23.1518C55.0772 22.1102 55.5347 21.8276 56.3738 21.6577C57.2129 21.4878 57.4593 21.2131 57.5556 20.7178C57.6518 20.2224 57.0136 19.6302 57.1926 18.8839C57.3716 18.1377 57.9692 18.1393 58.5567 17.2962C58.9332 16.7532 58.1616 15.9244 56.8769 16.28C55.5921 16.6357 55.6951 17.4153 54.4104 17.5153C53.1256 17.6153 52.3203 18.3489 52.295 19.2618C52.2697 20.1748 53.1172 24.4696 53.1172 24.4696Z" fill="black"/>
<path d="M52.8741 22.4725H52.8639C52.8531 22.4704 52.8427 22.4663 52.8336 22.4605C52.8244 22.4547 52.8165 22.4472 52.8104 22.4385C52.8043 22.4298 52.8 22.42 52.7979 22.4098C52.7958 22.3996 52.7959 22.389 52.7981 22.3788C53.4194 19.4907 56.8077 16.8471 57.6332 16.5772C57.6556 16.5703 57.68 16.572 57.7011 16.5819C57.7221 16.5919 57.7381 16.6093 57.7455 16.6304C57.7529 16.6515 57.7511 16.6744 57.7405 16.6942C57.7299 16.714 57.7113 16.729 57.6889 16.736C56.882 16.9995 53.5713 19.5939 52.9619 22.4185C52.9556 22.4354 52.9436 22.4498 52.9277 22.4595C52.9118 22.4693 52.893 22.4739 52.8741 22.4725V22.4725Z" fill="white"/>
<path d="M8.27246 21.4479C8.28071 21.3048 8.32476 21.1655 8.40103 21.0413C8.4773 20.9172 8.58364 20.8117 8.71141 20.7335L31.1499 8.5491C31.2858 8.48487 31.4359 8.45142 31.588 8.45142C31.7401 8.45142 31.8902 8.48487 32.0261 8.5491L32.5208 8.81902C32.6488 8.89696 32.7554 9.00237 32.8317 9.12658C32.908 9.25078 32.9519 9.39025 32.9597 9.53351V25.7095C32.9511 25.8525 32.9068 25.9917 32.8306 26.1158C32.7544 26.2399 32.6482 26.3454 32.5208 26.4239L10.0823 38.6067C9.94626 38.6717 9.79587 38.7056 9.64332 38.7056C9.49077 38.7056 9.34038 38.6717 9.20437 38.6067L8.71141 38.3384C8.58383 38.26 8.47763 38.1545 8.40138 38.0303C8.32513 37.9062 8.28097 37.767 8.27246 37.6239V21.4479Z" fill="#FBC105"/>
<path opacity="0.3" d="M8.27246 21.4479C8.28071 21.3048 8.32476 21.1655 8.40103 21.0413C8.4773 20.9172 8.58364 20.8117 8.71141 20.7335L31.1499 8.5491C31.2858 8.48487 31.4359 8.45142 31.588 8.45142C31.7401 8.45142 31.8902 8.48487 32.0261 8.5491L32.5208 8.81902C32.6488 8.89696 32.7554 9.00237 32.8317 9.12658C32.908 9.25078 32.9519 9.39025 32.9597 9.53351V25.7095C32.9511 25.8525 32.9068 25.9917 32.8306 26.1158C32.7544 26.2399 32.6482 26.3454 32.5208 26.4239L10.0823 38.6067C9.94626 38.6717 9.79587 38.7056 9.64332 38.7056C9.49077 38.7056 9.34038 38.6717 9.20437 38.6067L8.71141 38.3384C8.58383 38.26 8.47763 38.1545 8.40138 38.0303C8.32513 37.9062 8.28097 37.767 8.27246 37.6239V21.4479Z" fill="black"/>
<path d="M10.3287 22.0897L8.40077 21.0417C8.32195 21.1648 8.27779 21.3047 8.27246 21.4482V37.6242C8.28097 37.7673 8.32513 37.9065 8.40138 38.0306C8.47763 38.1547 8.58383 38.2602 8.71141 38.3386L9.20437 38.607C9.34038 38.672 9.49077 38.7058 9.64332 38.7058C9.79587 38.7058 9.94626 38.672 10.0823 38.607L10.3287 38.4736V22.0897Z" fill="#FBC105"/>
<path opacity="0.5" d="M10.3287 22.0897L8.40077 21.0417C8.32195 21.1648 8.27779 21.3047 8.27246 21.4482V37.6242C8.28097 37.7673 8.32513 37.9065 8.40138 38.0306C8.47763 38.1547 8.58383 38.2602 8.71141 38.3386L9.20437 38.607C9.34038 38.672 9.49077 38.7058 9.64332 38.7058C9.79587 38.7058 9.94626 38.672 10.0823 38.607L10.3287 38.4736V22.0897Z" fill="black"/>
<path d="M32.9605 9.53384V25.7098C32.9548 25.8579 32.9076 26.0019 32.8237 26.1274C32.7589 26.233 32.6715 26.3249 32.5671 26.3973L32.5502 26.4068L32.5215 26.4243L10.083 38.607C10.0401 38.6356 9.99017 38.6534 9.93793 38.659C9.8857 38.6645 9.83282 38.6576 9.78419 38.6388C9.73745 38.6111 9.69967 38.5719 9.67497 38.5254C9.65027 38.479 9.63958 38.427 9.64407 38.3752V22.1929C9.64025 22.135 9.65142 22.0771 9.67663 22.0241C9.70183 21.9712 9.74032 21.9247 9.78879 21.8888C9.83726 21.8529 9.89426 21.8286 9.95492 21.818C10.0156 21.8073 10.0781 21.8107 10.137 21.8278L19.5726 23.9379L20.8084 24.2141C20.9543 24.2398 21.1049 24.2275 21.2438 24.1786C21.3828 24.1296 21.5049 24.0458 21.5969 23.9363L23.0285 22.0611L32.665 9.44334C32.8271 9.23058 32.9605 9.27027 32.9605 9.53384Z" fill="#FBC105"/>
<path opacity="0.2" d="M32.9605 9.53384V25.7098C32.9548 25.8579 32.9076 26.0019 32.8237 26.1274C32.7589 26.233 32.6715 26.3249 32.5671 26.3973L32.5502 26.4068L32.5215 26.4243L10.083 38.607C10.0401 38.6356 9.99017 38.6534 9.93793 38.659C9.8857 38.6645 9.83282 38.6576 9.78419 38.6388C9.73745 38.6111 9.69967 38.5719 9.67497 38.5254C9.65027 38.479 9.63958 38.427 9.64407 38.3752V22.1929C9.64025 22.135 9.65142 22.0771 9.67663 22.0241C9.70183 21.9712 9.74032 21.9247 9.78879 21.8888C9.83726 21.8529 9.89426 21.8286 9.95492 21.818C10.0156 21.8073 10.0781 21.8107 10.137 21.8278L19.5726 23.9379L20.8084 24.2141C20.9543 24.2398 21.1049 24.2275 21.2438 24.1786C21.3828 24.1296 21.5049 24.0458 21.5969 23.9363L23.0285 22.0611L32.665 9.44334C32.8271 9.23058 32.9605 9.27027 32.9605 9.53384Z" fill="black"/>
<path d="M32.5204 26.4242L32.5491 26.4067L32.5659 26.3972C32.6704 26.3248 32.7577 26.2329 32.8226 26.1272C32.9055 26.0037 32.9527 25.862 32.9593 25.716L23.0273 22.0642L29.679 27.9706L32.5204 26.4242Z" fill="#FBC105"/>
<path opacity="0.6" d="M32.5204 26.4242L32.5491 26.4067L32.5659 26.3972C32.6704 26.3248 32.7577 26.2329 32.8226 26.1272C32.9055 26.0037 32.9527 25.862 32.9593 25.716L23.0273 22.0642L29.679 27.9706L32.5204 26.4242Z" fill="black"/>
<path d="M9.64309 38.3752C9.63664 38.428 9.64603 38.4814 9.6702 38.5294C9.69437 38.5774 9.73235 38.618 9.77984 38.6467C9.82846 38.6655 9.88135 38.6725 9.93358 38.6669C9.98582 38.6614 10.0357 38.6435 10.0787 38.615L17.8075 34.4059L19.5717 23.9268L9.64309 38.1006V38.3752Z" fill="#FBC105"/>
<path opacity="0.6" d="M9.64309 38.3752C9.63664 38.428 9.64603 38.4814 9.6702 38.5294C9.69437 38.5774 9.73235 38.618 9.77984 38.6467C9.82846 38.6655 9.88135 38.6725 9.93358 38.6669C9.98582 38.6614 10.0357 38.6435 10.0787 38.615L17.8075 34.4059L19.5717 23.9268L9.64309 38.1006V38.3752Z" fill="black"/>
<path d="M32.8222 26.1272C32.7574 26.2328 32.67 26.3247 32.5656 26.3971L32.5487 26.4066L10.0815 38.6068C10.0386 38.6353 9.98869 38.6532 9.93646 38.6588C9.88422 38.6643 9.83134 38.6574 9.78271 38.6386L20.5284 22.5055C20.7444 22.1824 21.0769 21.9432 21.4651 21.8318C21.8532 21.7204 22.2711 21.7443 22.6421 21.899L32.8222 26.1272Z" fill="#FBC105"/>
<path opacity="0.2" d="M32.8222 26.1272C32.7574 26.2328 32.67 26.3247 32.5656 26.3971L32.5487 26.4066L10.0815 38.6068C10.0386 38.6353 9.98869 38.6532 9.93646 38.6588C9.88422 38.6643 9.83134 38.6574 9.78271 38.6386L20.5284 22.5055C20.7444 22.1824 21.0769 21.9432 21.4651 21.8318C21.8532 21.7204 22.2711 21.7443 22.6421 21.899L32.8222 26.1272Z" fill="black"/>
<path d="M9.64307 21.7161L19.9633 26.003C20.3349 26.1573 20.7532 26.1804 21.1414 26.0681C21.5296 25.9558 21.8618 25.7157 22.077 25.3917L32.9139 9.08081L9.64307 21.7161Z" fill="#FBC105"/>
<path opacity="0.6" d="M9.64307 21.7161L19.9633 26.003C20.3349 26.1573 20.7532 26.1804 21.1414 26.0681C21.5296 25.9558 21.8618 25.7157 22.077 25.3917L32.9139 9.08081L9.64307 21.7161Z" fill="black"/>
<path d="M9.64307 21.7161L20.0359 25.3679C20.3951 25.494 20.7892 25.5014 21.1534 25.3889C21.5176 25.2763 21.8302 25.0505 22.0399 24.7487L32.9139 9.08081L9.64307 21.7161Z" fill="#FBC105"/>
<path opacity="0.2" d="M9.64307 21.7161L20.0359 25.3679C20.3951 25.494 20.7892 25.5014 21.1534 25.3889C21.5176 25.2763 21.8302 25.0505 22.0399 24.7487L32.9139 9.08081L9.64307 21.7161Z" fill="black"/>
<path d="M12.105 23.4403C12.1128 23.2971 12.1567 23.1576 12.233 23.0334C12.3093 22.9092 12.4159 22.8038 12.5439 22.7258L34.9824 10.5415C35.1184 10.4765 35.2688 10.4426 35.4214 10.4426C35.5739 10.4426 35.7243 10.4765 35.8603 10.5415L36.355 10.8098C36.4824 10.8882 36.5884 10.9938 36.6644 11.1179C36.7404 11.242 36.7842 11.3813 36.7922 11.5243V27.7002C36.7839 27.8432 36.74 27.9824 36.664 28.1065C36.5881 28.2306 36.4822 28.3361 36.355 28.4147L13.9148 40.5975C13.7788 40.6617 13.6288 40.6952 13.4767 40.6952C13.3245 40.6952 13.1745 40.6617 13.0386 40.5975L12.5439 40.3292C12.4164 40.2507 12.3103 40.1451 12.2341 40.021C12.1578 39.897 12.1136 39.7578 12.105 39.6147V23.4403Z" fill="#455A64"/>
<path d="M12.105 23.4403C12.1128 23.2971 12.1567 23.1576 12.233 23.0334C12.3093 22.9092 12.4159 22.8038 12.5439 22.7258L34.9824 10.5415C35.1184 10.4765 35.2688 10.4426 35.4214 10.4426C35.5739 10.4426 35.7243 10.4765 35.8603 10.5415L36.355 10.8098C36.4824 10.8882 36.5884 10.9938 36.6644 11.1179C36.7404 11.242 36.7842 11.3813 36.7922 11.5243V27.7002C36.7839 27.8432 36.74 27.9824 36.664 28.1065C36.5881 28.2306 36.4822 28.3361 36.355 28.4147L13.9148 40.5975C13.7788 40.6617 13.6288 40.6952 13.4767 40.6952C13.3245 40.6952 13.1745 40.6617 13.0386 40.5975L12.5439 40.3292C12.4164 40.2507 12.3103 40.1451 12.2341 40.021C12.1578 39.897 12.1136 39.7578 12.105 39.6147V23.4403Z" fill="#455A64"/>
<path d="M14.163 24.0856L12.2333 23.0393C12.1543 23.1622 12.1101 23.3022 12.105 23.4458V39.617C12.1136 39.76 12.1578 39.8992 12.2341 40.0233C12.3103 40.1474 12.4164 40.2529 12.5439 40.3314L13.0386 40.5998C13.1745 40.664 13.3245 40.6975 13.4767 40.6975C13.6288 40.6975 13.7788 40.664 13.9148 40.5998L14.163 40.4648V24.0856Z" fill="#263238"/>
<path d="M36.7935 11.5245V27.7004C36.7878 27.8485 36.7406 27.9925 36.6567 28.118C36.5919 28.2236 36.5046 28.3155 36.4001 28.3879L36.3833 28.3974L36.3546 28.4149L13.9161 40.5977C13.8731 40.6262 13.8232 40.644 13.771 40.6496C13.7187 40.6551 13.6659 40.6482 13.6172 40.6294C13.5698 40.6007 13.5318 40.56 13.5076 40.512C13.4834 40.4641 13.474 40.4107 13.4805 40.3579V24.1835C13.4767 24.1256 13.4878 24.0677 13.5131 24.0147C13.5383 23.9618 13.5767 23.9154 13.6252 23.8795C13.6737 23.8436 13.7307 23.8192 13.7913 23.8086C13.852 23.798 13.9145 23.8013 13.9735 23.8184L23.4091 25.9285L24.6449 26.2047C24.7907 26.2304 24.9413 26.2181 25.0803 26.1692C25.2192 26.1202 25.3413 26.0364 25.4333 25.9269L26.8632 24.0518L36.4997 11.434C36.6551 11.2244 36.7935 11.2609 36.7935 11.5245Z" fill="#37474F"/>
<path d="M36.3548 28.415L36.3835 28.3975L36.4004 28.388C36.5048 28.3156 36.5922 28.2237 36.657 28.1181C36.739 27.9948 36.7855 27.8537 36.7921 27.7085L26.8618 24.0566L33.5118 29.9599L36.3548 28.415Z" fill="#263238"/>
<path d="M13.4775 40.3597C13.471 40.4125 13.4804 40.4659 13.5046 40.5139C13.5288 40.5618 13.5668 40.6025 13.6142 40.6312C13.6629 40.65 13.7158 40.657 13.768 40.6514C13.8202 40.6459 13.8701 40.628 13.9131 40.5995V40.5995L21.6385 36.4047L23.4027 25.9255L13.4741 40.0882L13.4775 40.3597Z" fill="#263238"/>
<path d="M36.6555 28.1183C36.5907 28.2239 36.5033 28.3158 36.3989 28.3882L36.382 28.3977L13.9165 40.598C13.8736 40.6265 13.8237 40.6443 13.7714 40.6499C13.7192 40.6554 13.6663 40.6485 13.6177 40.6297L24.3617 24.4982C24.5771 24.1745 24.9094 23.9347 25.2976 23.8227C25.6859 23.7107 26.104 23.7341 26.4754 23.8885L36.6555 28.1183Z" fill="#37474F"/>
<path d="M13.4771 23.7094L23.7973 27.9963C24.1687 28.1501 24.5866 28.173 24.9744 28.0608C25.3623 27.9485 25.6942 27.7086 25.9093 27.385L36.7462 11.0662L13.4771 23.7094Z" fill="#263238"/>
<path d="M13.4771 23.7094L23.8682 27.3612C24.2276 27.4877 24.6221 27.4953 24.9866 27.3827C25.3512 27.2702 25.6641 27.0442 25.8739 26.742L36.7462 11.0662L13.4771 23.7094Z" fill="#37474F"/>
<path d="M28.5635 36.2809V20.1049C28.5791 19.798 28.6811 19.5005 28.8589 19.2428L39.5607 5.22775C39.756 4.9717 40.0279 4.77609 40.3418 4.66582C40.6556 4.55555 40.9973 4.53561 41.3232 4.60853L51.3869 6.85837C51.7112 6.93954 52.024 7.05681 52.3188 7.20767L52.8135 7.476C52.9406 7.55468 53.0464 7.66029 53.1224 7.78437C53.1983 7.90845 53.2423 8.04754 53.2507 8.19048V24.3664C53.242 24.5093 53.1979 24.6483 53.122 24.7724C53.0461 24.8964 52.9404 25.0021 52.8135 25.0809L30.3733 37.2637C30.2375 37.3283 30.0874 37.3619 29.9352 37.3619C29.783 37.3619 29.6329 37.3283 29.4971 37.2637L29.0024 36.9954C28.8748 36.9169 28.7686 36.8114 28.6924 36.6873C28.6161 36.5632 28.572 36.424 28.5635 36.2809V36.2809Z" fill="#FBC105"/>
<path opacity="0.3" d="M28.5635 36.2809V20.1049C28.5791 19.798 28.6811 19.5005 28.8589 19.2428L39.5607 5.22775C39.756 4.9717 40.0279 4.77609 40.3418 4.66582C40.6556 4.55555 40.9973 4.53561 41.3232 4.60853L51.3869 6.85837C51.7112 6.93954 52.024 7.05681 52.3188 7.20767L52.8135 7.476C52.9406 7.55468 53.0464 7.66029 53.1224 7.78437C53.1983 7.90845 53.2423 8.04754 53.2507 8.19048V24.3664C53.242 24.5093 53.1979 24.6483 53.122 24.7724C53.0461 24.8964 52.9404 25.0021 52.8135 25.0809L30.3733 37.2637C30.2375 37.3283 30.0874 37.3619 29.9352 37.3619C29.783 37.3619 29.6329 37.3283 29.4971 37.2637L29.0024 36.9954C28.8748 36.9169 28.7686 36.8114 28.6924 36.6873C28.6161 36.5632 28.572 36.424 28.5635 36.2809V36.2809Z" fill="white"/>
<path d="M30.6191 12.2868V32.9275C30.6191 33.1894 30.8167 33.2974 31.0581 33.1656L52.1257 21.7339C52.2536 21.6557 52.36 21.5503 52.4363 21.4261C52.5126 21.3019 52.5565 21.1626 52.5647 21.0194V0.378685C52.5647 0.115119 52.3688 0.00874001 52.1257 0.140523L31.0581 11.5723C30.9303 11.6505 30.824 11.756 30.7477 11.8801C30.6714 12.0043 30.6274 12.1436 30.6191 12.2868V12.2868Z" fill="#FAFAFA"/>
<path d="M30.8636 33.3038C30.8091 33.3041 30.7555 33.291 30.7082 33.2656C30.6505 33.2294 30.6043 33.1791 30.5745 33.1201C30.5448 33.0611 30.5327 32.9956 30.5394 32.9306V12.2899C30.5474 12.1326 30.5953 11.9794 30.679 11.843C30.7626 11.7065 30.8798 11.5909 31.0206 11.5056L52.0882 0.073837C52.1432 0.0317106 52.2105 0.00631851 52.2812 0.00103348C52.3519 -0.00425156 52.4227 0.0108206 52.484 0.0442485C52.5454 0.0776764 52.5945 0.127877 52.6248 0.18818C52.6552 0.248484 52.6653 0.316036 52.6538 0.38186V21.0225C52.6459 21.1797 52.5981 21.3328 52.5144 21.4689C52.4307 21.6051 52.3135 21.7205 52.1726 21.8053L31.105 33.2371C31.0322 33.279 30.9489 33.3021 30.8636 33.3038V33.3038ZM52.3229 0.154812C52.2684 0.157745 52.2155 0.173584 52.1692 0.200857L31.1016 11.6406C30.9869 11.7121 30.8914 11.8077 30.8226 11.9199C30.7537 12.032 30.7135 12.1576 30.7049 12.2868V32.9275C30.6947 32.9647 30.6978 33.004 30.7137 33.0394C30.7295 33.0749 30.7572 33.1044 30.7926 33.1237C30.828 33.1429 30.8691 33.1508 30.9096 33.146C30.9501 33.1412 30.9879 33.1242 31.0172 33.0973L52.0848 21.6656C52.1996 21.5941 52.2952 21.4985 52.364 21.3864C52.4329 21.2742 52.4731 21.1486 52.4816 21.0194V0.378685C52.4863 0.341449 52.4809 0.303685 52.4659 0.268959C52.4508 0.234234 52.4266 0.203692 52.3955 0.180217C52.3742 0.165723 52.3491 0.156942 52.3229 0.154812V0.154812Z" fill="#E0E0E0"/>
<path d="M30.1649 20.499L28.6455 19.6733C28.5963 19.8128 28.569 19.9583 28.5645 20.1052V36.2812C28.573 36.4243 28.6171 36.5635 28.6934 36.6876C28.7696 36.8117 28.8758 36.9172 29.0034 36.9956L29.4964 37.264C29.6321 37.3289 29.7822 37.3628 29.9345 37.3628C30.0867 37.3628 30.2369 37.3289 30.3726 37.264L30.5836 37.1512L30.1649 20.499Z" fill="#FBC105"/>
<g opacity="0.1">
<path opacity="0.1" d="M30.1649 20.4985L28.6455 19.6729C28.5963 19.8123 28.569 19.9578 28.5645 20.1047V36.2807C28.573 36.4238 28.6171 36.563 28.6934 36.6871C28.7696 36.8112 28.8758 36.9167 29.0034 36.9952L29.4964 37.2635C29.6321 37.3285 29.7822 37.3623 29.9345 37.3623C30.0867 37.3623 30.2369 37.3285 30.3726 37.2635L30.5836 37.1508L30.1649 20.4985Z" fill="black"/>
</g>
<path d="M53.253 8.19023V24.3662C53.2473 24.5143 53.2001 24.6583 53.1162 24.7838C53.0514 24.8894 52.964 24.9813 52.8596 25.0537L52.8427 25.0632L52.814 25.0807L30.3755 37.2634C30.3326 37.2919 30.2827 37.3098 30.2305 37.3154C30.1782 37.3209 30.1253 37.314 30.0767 37.2952C30.0292 37.2665 29.9912 37.2258 29.9671 37.1778C29.9429 37.1298 29.9335 37.0764 29.94 37.0237V20.8493C29.9361 20.7914 29.9473 20.7335 29.9725 20.6805C29.9977 20.6276 30.0362 20.5811 30.0847 20.5452C30.1332 20.5093 30.1902 20.485 30.2508 20.4744C30.3115 20.4637 30.374 20.4671 30.4329 20.4841L39.8635 22.5943L41.0993 22.8705C41.2454 22.8965 41.3963 22.8844 41.5356 22.8354C41.6749 22.7864 41.7973 22.7025 41.8894 22.5927L43.321 20.7175L52.9575 8.09973C53.1196 7.89014 53.253 7.92666 53.253 8.19023Z" fill="#FBC105"/>
<path opacity="0.3" d="M53.253 8.19023V24.3662C53.2473 24.5143 53.2001 24.6583 53.1162 24.7838C53.0514 24.8894 52.964 24.9813 52.8596 25.0537L52.8427 25.0632L52.814 25.0807L30.3755 37.2634C30.3326 37.2919 30.2827 37.3098 30.2305 37.3154C30.1782 37.3209 30.1253 37.314 30.0767 37.2952C30.0292 37.2665 29.9912 37.2258 29.9671 37.1778C29.9429 37.1298 29.9335 37.0764 29.94 37.0237V20.8493C29.9361 20.7914 29.9473 20.7335 29.9725 20.6805C29.9977 20.6276 30.0362 20.5811 30.0847 20.5452C30.1332 20.5093 30.1902 20.485 30.2508 20.4744C30.3115 20.4637 30.374 20.4671 30.4329 20.4841L39.8635 22.5943L41.0993 22.8705C41.2454 22.8965 41.3963 22.8844 41.5356 22.8354C41.6749 22.7864 41.7973 22.7025 41.8894 22.5927L43.321 20.7175L52.9575 8.09973C53.1196 7.89014 53.253 7.92666 53.253 8.19023Z" fill="white"/>
<path d="M52.8143 25.0809L52.843 25.0634L52.8599 25.0539C52.9643 24.9815 53.0517 24.8896 53.1165 24.784C53.1985 24.6602 53.245 24.5185 53.2516 24.3728L43.3213 20.7209L49.9713 26.6258L52.8143 25.0809Z" fill="#FBC105"/>
<path d="M29.937 37.0257C29.9305 37.0785 29.9399 37.1319 29.9641 37.1799C29.9883 37.2279 30.0262 37.2685 30.0737 37.2972C30.1223 37.316 30.1752 37.323 30.2275 37.3174C30.2797 37.3119 30.3296 37.294 30.3725 37.2655V37.2655L38.098 33.0707L39.8622 22.5916L29.9336 36.7542L29.937 37.0257Z" fill="#FBC105"/>
<path d="M53.1162 24.7838C53.0513 24.8894 52.964 24.9813 52.8596 25.0537L52.8427 25.0632L30.3755 37.2634C30.3325 37.2919 30.2826 37.3098 30.2304 37.3154C30.1782 37.3209 30.1253 37.314 30.0767 37.2952L40.8207 21.1637C41.0361 20.8404 41.3681 20.6008 41.7559 20.4888C42.1437 20.3769 42.5615 20.4 42.9327 20.554L53.1162 24.7838Z" fill="#FBC105"/>
<path opacity="0.3" d="M53.1162 24.7838C53.0513 24.8894 52.964 24.9813 52.8596 25.0537L52.8427 25.0632L30.3755 37.2634C30.3325 37.2919 30.2826 37.3098 30.2304 37.3154C30.1782 37.3209 30.1253 37.314 30.0767 37.2952L40.8207 21.1637C41.0361 20.8404 41.3681 20.6008 41.7559 20.4888C42.1437 20.3769 42.5615 20.4 42.9327 20.554L53.1162 24.7838Z" fill="white"/>
<path d="M39.8968 17.0403C39.6998 17.0689 39.4984 17.0521 39.3098 16.9913C39.1213 16.9304 38.9514 16.8274 38.8146 16.691C38.558 16.4226 38.4297 16.0082 38.4297 15.4509C38.4301 14.8221 38.5734 14.2007 38.8501 13.6282C39.134 13.0391 39.526 12.5017 40.0082 12.0405C40.5266 11.5349 41.1176 11.0999 41.764 10.748C42.3976 10.4051 42.9384 10.2151 43.3864 10.178C43.8371 10.1399 44.1765 10.2495 44.4095 10.5035C44.6424 10.7576 44.7572 11.1466 44.7572 11.6673C44.767 12.1838 44.6369 12.6942 44.3791 13.1503C44.1519 13.5634 43.8055 13.9079 43.3796 14.1442C43.2326 14.2425 43.0524 14.2865 42.8732 14.2681C42.8094 14.2562 42.7506 14.2273 42.7039 14.1847C42.6571 14.1422 42.6245 14.0879 42.6098 14.0283C42.4692 14.2784 42.2906 14.5078 42.0797 14.7095C41.8662 14.9166 41.623 15.0945 41.3571 15.2382C40.8979 15.4827 40.5316 15.5557 40.2614 15.4716C39.9913 15.3874 39.863 15.1302 39.863 14.7015C39.8669 14.1628 40.0434 13.6377 40.3695 13.1948C40.7245 12.7037 41.1961 12.2971 41.7471 12.0071C41.9772 11.8782 42.2272 11.784 42.4882 11.7277C42.6823 11.6782 42.8868 11.6782 43.0808 11.7277V13.3996C43.0808 13.5345 43.1061 13.6171 43.1551 13.6488C43.2041 13.6806 43.2851 13.6647 43.3999 13.6028C43.6137 13.472 43.772 13.2748 43.8473 13.0455C43.9614 12.7358 44.0157 12.4094 44.0077 12.0817C44.0077 11.6647 43.9109 11.3614 43.7173 11.172C43.6138 11.0768 43.4876 11.0064 43.3493 10.9667C43.2109 10.9269 43.0644 10.9189 42.9221 10.9433C42.5099 11.0026 42.1152 11.1409 41.7623 11.3498C41.0159 11.7392 40.3724 12.2819 39.8799 12.9375C39.4247 13.5528 39.1829 14.2854 39.1877 15.0349C39.1877 15.4912 39.2873 15.8241 39.4865 16.0336C39.5898 16.1385 39.7191 16.2178 39.8628 16.2643C40.0066 16.3109 40.1603 16.3233 40.3104 16.3004C40.7305 16.2444 41.1333 16.1053 41.4922 15.8923C41.7398 15.7576 41.9743 15.6025 42.1928 15.4287C42.3962 15.2708 42.5813 15.093 42.7448 14.8984C42.7618 14.8779 42.7817 14.8597 42.8039 14.8444C42.8191 14.8365 42.8343 14.8444 42.8478 14.8635L43.0335 15.181C43.0403 15.1936 43.0454 15.2069 43.0487 15.2207C43.0428 15.2561 43.0244 15.2885 42.9964 15.3128C42.7924 15.5435 42.5664 15.7561 42.3211 15.9479C42.0629 16.1516 41.7867 16.3344 41.4955 16.4941C41.0106 16.7821 40.4653 16.9684 39.8968 17.0403V17.0403ZM42.0915 14.0553C42.2522 13.8769 42.3459 13.6537 42.3582 13.4202V12.4517C42.1173 12.4708 41.8852 12.5461 41.6829 12.6708C41.3609 12.8412 41.0866 13.0812 40.8827 13.371C40.6915 13.6369 40.5886 13.9502 40.5873 14.2712C40.5873 14.5396 40.6582 14.6999 40.8017 14.7476C40.9452 14.7952 41.1663 14.7476 41.4685 14.5777C41.7132 14.4446 41.9273 14.267 42.0982 14.0553H42.0915Z" fill="#E0E0E0"/>
<path d="M18.3943 18.6314L16.7483 17.7343H16.7365C16.1743 17.4358 15.3994 17.4802 14.5418 17.9455C12.8181 18.8806 11.4219 21.1559 11.4219 23.0262C11.4219 23.9614 11.7697 24.614 12.3318 24.9315L13.8631 25.7556L14.14 25.3221C14.454 25.2559 14.7556 25.1457 15.0347 24.995C16.7567 24.0583 18.1546 21.783 18.1546 19.9143C18.1537 19.6617 18.1208 19.4101 18.0567 19.1648L18.3943 18.6314Z" fill="#F28F8F"/>
<path d="M18.3943 18.6314L16.7483 17.7343H16.7365C16.1743 17.4358 15.3994 17.4802 14.5418 17.9455C12.8181 18.8806 11.4219 21.1559 11.4219 23.0262C11.4219 23.9614 11.7697 24.614 12.3318 24.9315L13.8631 25.7556L14.14 25.3221C14.454 25.2559 14.7556 25.1457 15.0347 24.995C16.7567 24.0583 18.1546 21.783 18.1546 19.9143C18.1537 19.6617 18.1208 19.4101 18.0567 19.1648L18.3943 18.6314Z" fill="#FBC105"/>
<path opacity="0.4" d="M18.3943 18.6314L16.7483 17.7343H16.7365C16.1743 17.4358 15.3994 17.4802 14.5418 17.9455C12.8181 18.8806 11.4219 21.1559 11.4219 23.0262C11.4219 23.9614 11.7697 24.614 12.3318 24.9315L13.8631 25.7556L14.14 25.3221C14.454 25.2559 14.7556 25.1457 15.0347 24.995C16.7567 24.0583 18.1546 21.783 18.1546 19.9143C18.1537 19.6617 18.1208 19.4101 18.0567 19.1648L18.3943 18.6314Z" fill="black"/>
<path d="M16.1243 18.7981C14.4006 19.7349 13.0044 22.0101 13.0044 23.8789C13.0044 25.7477 14.4006 26.5082 16.1243 25.573C17.848 24.6378 19.2442 22.3626 19.2442 20.4922C19.2442 18.6219 17.848 17.8629 16.1243 18.7981Z" fill="#FBC105"/>
<path d="M14.9039 24.3267C14.8719 24.3267 14.855 24.3092 14.855 24.2822C14.8583 24.2524 14.8675 24.2233 14.882 24.1965L15.039 23.8647C15.0494 23.8322 15.07 23.8034 15.0981 23.7821C15.1215 23.7722 15.1467 23.7668 15.1724 23.7662C15.3129 23.7584 15.4515 23.7322 15.5843 23.6884C15.7609 23.6325 15.9307 23.559 16.0908 23.4693C16.3399 23.3424 16.5583 23.1683 16.7323 22.9581C16.8628 22.799 16.9356 22.6048 16.94 22.4039C16.94 22.0531 16.7121 22.0022 16.2562 22.2452L15.8122 22.4976C15.7396 22.5357 15.689 22.55 15.6586 22.5373C15.6282 22.5246 15.613 22.4865 15.613 22.423V22.2912C15.6106 22.2352 15.6265 22.1797 15.6586 22.1324C15.6992 22.0808 15.7518 22.0385 15.8122 22.0086L16.2529 21.7688C16.4294 21.6785 16.5791 21.548 16.6884 21.3894C16.78 21.2562 16.8303 21.1017 16.8336 20.9432C16.8336 20.6034 16.5792 20.5717 16.0705 20.848C15.7577 21.0156 15.476 21.2301 15.2365 21.4831C15.214 21.5069 15.1892 21.5287 15.1622 21.5482C15.1523 21.5526 15.1411 21.5537 15.1304 21.5514C15.1196 21.5491 15.1101 21.5435 15.1032 21.5355L14.9529 21.3767C14.9445 21.3694 14.9378 21.3605 14.9332 21.3507C14.9285 21.3409 14.926 21.3303 14.9259 21.3195C14.9293 21.2831 14.946 21.2489 14.9732 21.2227C15.1227 21.0467 15.2926 20.887 15.4796 20.7463C15.6974 20.5794 15.9295 20.4297 16.1735 20.2986C16.3938 20.1697 16.6368 20.0788 16.891 20.0303C16.971 20.0119 17.0543 20.0102 17.1351 20.0253C17.2159 20.0404 17.2922 20.0719 17.3587 20.1176C17.4186 20.172 17.4649 20.2382 17.4941 20.3116C17.5233 20.3849 17.5347 20.4635 17.5275 20.5415C17.5237 20.7163 17.4823 20.8886 17.4059 21.048C17.3243 21.232 17.2102 21.4016 17.0683 21.5497C17.1411 21.5268 17.219 21.5216 17.2946 21.5346C17.3702 21.5477 17.441 21.5785 17.5005 21.6244C17.5525 21.6813 17.592 21.7474 17.6166 21.8188C17.6412 21.8902 17.6505 21.9655 17.644 22.0404C17.6311 22.3923 17.4998 22.7314 17.2692 23.0089C16.986 23.3661 16.6244 23.6617 16.209 23.8758C15.6147 24.2029 15.1797 24.3532 14.9039 24.3267Z" fill="white"/>
<path d="M44.4209 41.3717C43.9617 40.87 44.3702 40.0364 44.8159 38.9552C45.3055 37.766 46.0618 35.7448 46.0618 35.7448L51.4322 34.7016C51.4322 34.7016 57.1536 34.5984 57.6787 35.6273C58.1041 36.4513 54.3359 37.6913 53.7957 37.7358L50.4884 37.8993L50.1407 38.0581L47.8176 40.8224L44.4209 41.3717Z" fill="#FBC105"/>
<path d="M54.3161 36.4703C53.8991 36.8692 53.5105 37.2935 53.1529 37.7405C52.1855 39.0107 50.6543 41.3177 50.6543 41.3177C50.6543 41.3177 50.8923 42.0481 51.6233 42.0163C51.6233 42.0163 56.6543 37.5976 57.0663 37.1896C57.6892 36.5704 58.1889 35.5494 57.1118 35.4653C56.0347 35.3811 54.7348 36.0448 54.3161 36.4703Z" fill="#FBC105"/>
<path d="M53.1245 37.7663C53.1245 37.7663 54.0227 36.531 54.9529 36.0198C54.9529 36.0198 54.0277 36.1913 52.6265 37.7949L53.1245 37.7663Z" fill="#FBC105"/>
<path opacity="0.1" d="M53.1245 37.7663C53.1245 37.7663 54.0227 36.531 54.9529 36.0198C54.9529 36.0198 54.0277 36.1913 52.6265 37.7949L53.1245 37.7663Z" fill="black"/>
<path d="M53.7371 39.3284L53.3843 39.3919L53.7118 40.5303C53.7118 40.5303 54.0292 40.5017 54.1389 40.5081C54.2988 40.4724 54.4527 40.4163 54.5964 40.3414L54.512 39.646L54.1237 39.2649L53.7371 39.3284Z" fill="#FFA8A7"/>
<path d="M56.5219 39.5968C56.6903 39.6607 56.8429 39.7565 56.9702 39.8784C57.0974 40.0002 57.1965 40.1454 57.2614 40.3049C57.3366 40.4718 57.3981 40.6437 57.4454 40.8194C57.5011 41.0036 57.4741 41.3163 57.2259 41.3671C57.1453 41.3761 57.0636 41.3622 56.9913 41.3274C56.4932 41.1464 56.007 40.9369 55.4972 40.7844C55.0603 40.6323 54.6028 40.5387 54.1381 40.5066C54.2437 40.3537 54.2965 40.1739 54.2893 39.9917C54.282 39.8095 54.2151 39.6339 54.0976 39.4888C53.9977 39.4019 53.8714 39.3464 53.7363 39.3301C53.8646 39.2761 53.9845 39.2062 54.1077 39.1411C54.3373 38.9902 54.6183 38.9251 54.8962 38.9585C55.1089 39.0014 55.2709 39.1602 55.4516 39.2761C55.796 39.4873 56.1286 39.473 56.5219 39.5968Z" fill="#263238"/>
<path d="M45.1449 40.2811C45.5889 40.1525 46.298 40.0382 48.4015 39.9366C50.5051 39.8349 53.3836 39.3904 53.3836 39.3904C53.8731 39.8334 53.7111 40.5288 53.7111 40.5288C53.7111 40.5288 49.975 41.6402 48.7578 41.7879C46.8197 42.0229 46.1511 42.0054 45.2766 41.8292C44.294 41.6307 43.6745 40.705 45.1449 40.2811Z" fill="#FBC105"/>
<path d="M52.8338 30.8577L54.414 34.4095L53.2829 35.0636L51.1084 31.6007L52.8338 30.8577Z" fill="#F28F8F"/>
<path d="M49.5649 27.5107C50.4293 27.5203 51.3798 27.8156 51.7073 28.4523L53.0579 31.0721C53.0579 31.0721 52.2948 32.1231 51.0827 32.0485L49.5649 27.5107Z" fill="#E0E0E0"/>
<path d="M43.8183 33.0313C43.8284 32.8932 44.0395 32.2184 44.2657 31.4912L45.9067 32.0247L45.466 33.3314L44.0833 34.5651C43.7839 34.1065 43.6886 33.5555 43.8183 33.0313Z" fill="#FFA8A7"/>
<path d="M47.7977 27.56C46.7679 27.7934 45.3649 28.0966 44.9581 29.1477C44.5512 30.1988 43.9688 32.0549 43.9688 32.0549C44.195 32.4232 45.4358 32.7281 45.8663 32.5153L46.0689 31.8802V35.7416C46.8742 36.5657 50.8467 36.3545 51.4392 34.6985V29.4383C51.4392 28.5968 50.9429 27.5854 49.5704 27.5107L47.7977 27.56Z" fill="#FAFAFA"/>
<path d="M46.0645 31.8832L46.5811 30.3542L46.0645 32.5676V31.8832Z" fill="#E0E0E0"/>
<path d="M47.4059 23.2558C47.3142 23.2446 47.2211 23.2531 47.1334 23.2806C47.0456 23.308 46.9657 23.3539 46.8995 23.4145C46.6817 23.6241 46.7306 24.0115 46.8995 24.9007L47.5748 24.9721L47.4059 23.2558Z" fill="#263238"/>
<path d="M51.3251 22.9981C51.4697 22.9987 51.6128 22.9711 51.7455 22.9171C51.9514 22.806 52.0055 23.0267 51.8924 23.2172C51.8176 23.3546 51.7066 23.4717 51.5701 23.5573C51.4336 23.6429 51.276 23.6942 51.1124 23.7062C51.1124 23.6792 50.9199 23.2124 50.9199 23.2124L51.3251 22.9981Z" fill="#263238"/>
<path d="M47.7206 24.9812C47.621 25.0368 47.4775 24.8574 47.3543 24.7351C47.306 24.6831 47.2443 24.6436 47.1752 24.6202C47.1061 24.5968 47.0318 24.5904 46.9594 24.6015C46.8869 24.6127 46.8186 24.641 46.761 24.6838C46.7034 24.7266 46.6583 24.7825 46.63 24.8463C46.4258 25.2511 46.89 25.7894 47.1618 25.9672C47.2381 26.0291 47.3332 26.0667 47.4336 26.0747C47.5339 26.0827 47.6344 26.0606 47.7206 26.0117L47.7916 27.5597C47.912 27.8078 48.0959 28.024 48.3269 28.1888C48.5578 28.3537 48.8287 28.4621 49.1151 28.5044C50.0808 28.6267 49.8816 27.8773 49.5642 27.5105V26.9437C49.806 26.9922 50.0545 27.004 50.3003 26.9786C50.4252 26.9469 50.7257 26.6055 50.9199 26.2228C51.1377 25.7942 51.5006 25.032 51.1782 23.7412C50.8304 22.3567 49.2485 22.3122 48.3082 22.8727C47.3678 23.4332 47.7206 24.9812 47.7206 24.9812Z" fill="#FFA8A7"/>
<path d="M47.7212 25.1387C47.6705 25.1387 47.4798 24.8418 47.3548 24.7354C47.186 24.5878 47.4055 23.2557 47.4055 23.2557C47.4055 23.2557 47.2367 22.7492 47.5743 22.4142C47.912 22.0791 48.5738 22.1347 49.0566 22.1188C49.6482 22.1219 50.2342 22.0111 50.7786 21.7934C51.464 21.5139 51.5147 21.4758 51.5991 21.7632C51.6835 22.0506 51.7173 22.6936 51.3087 23.1271L51.0859 23.4684C51.0859 23.4684 50.8782 23.6272 50.2417 23.7066C49.6053 23.786 48.5147 23.4573 48.3847 23.4398C48.199 23.416 48.1601 23.5843 48.0605 24.0448C47.966 24.4497 47.89 25.1356 47.7212 25.1387Z" fill="#263238"/>
<path d="M47.4071 23.3587L46.8027 23.0539C46.8226 23.0161 46.8503 22.9824 46.8842 22.9548C46.918 22.9272 46.9574 22.9062 47 22.8931C47.0426 22.8799 47.0875 22.8749 47.1322 22.8782C47.1769 22.8816 47.2204 22.8932 47.2603 22.9126C47.3407 22.9552 47.4008 23.0252 47.4281 23.1082C47.4554 23.1911 47.4479 23.2808 47.4071 23.3587V23.3587Z" fill="#263238"/>
<path d="M49.5631 26.9435C49.5631 26.9435 48.6683 26.7736 48.356 26.6259C48.1722 26.5353 48.0216 26.3948 47.9238 26.2227C47.9713 26.3953 48.0551 26.5573 48.1703 26.699C48.3982 26.9737 49.5631 27.1753 49.5631 27.1753V26.9435Z" fill="#F28F8F"/>
<path d="M49.5931 24.9496C49.5918 24.9825 49.5802 25.0144 49.5597 25.0413C49.5393 25.0681 49.5109 25.0887 49.4781 25.1004C49.4453 25.1122 49.4096 25.1147 49.3753 25.1075C49.3411 25.1003 49.3098 25.0838 49.2854 25.06C49.2611 25.0362 49.2447 25.0062 49.2383 24.9738C49.232 24.9413 49.2359 24.9078 49.2496 24.8774C49.2633 24.847 49.2862 24.8211 49.3155 24.8029C49.3448 24.7847 49.3791 24.7749 49.4142 24.7749C49.4381 24.7753 49.4617 24.7802 49.4837 24.7892C49.5057 24.7982 49.5255 24.8111 49.5421 24.8274C49.5587 24.8436 49.5718 24.8627 49.5806 24.8837C49.5893 24.9047 49.5936 24.927 49.5931 24.9496Z" fill="#263238"/>
<path d="M49.4041 24.3144L49.0191 24.5129C48.9925 24.4633 48.9869 24.406 49.0035 24.3526C49.0201 24.2992 49.0577 24.2538 49.1086 24.2255C49.1341 24.2125 49.1621 24.2044 49.191 24.2018C49.2198 24.1993 49.2489 24.2022 49.2766 24.2105C49.3042 24.2188 49.3297 24.2323 49.3516 24.2502C49.3735 24.268 49.3914 24.2899 49.4041 24.3144V24.3144Z" fill="#263238"/>
<path d="M49.4859 26.0769L49.8962 26.223C49.8871 26.2487 49.8726 26.2725 49.8536 26.2929C49.8345 26.3133 49.8114 26.3299 49.7854 26.3417C49.7594 26.3536 49.7312 26.3604 49.7024 26.3618C49.6736 26.3633 49.6448 26.3592 49.6176 26.35C49.5623 26.3294 49.5177 26.2894 49.4932 26.2385C49.4686 26.1875 49.466 26.1296 49.4859 26.0769Z" fill="#F28F8F"/>
<path d="M51.1918 24.4542L50.8423 24.2001C50.8588 24.1781 50.88 24.1594 50.9044 24.1452C50.9289 24.1311 50.9561 24.1217 50.9845 24.1177C51.0129 24.1137 51.0419 24.1151 51.0696 24.1219C51.0974 24.1287 51.1235 24.1408 51.1462 24.1573C51.1928 24.1918 51.2236 24.2419 51.2321 24.2972C51.2406 24.3524 51.2261 24.4086 51.1918 24.4542Z" fill="#263238"/>
<path d="M51.0834 24.9022C51.082 24.9352 51.0704 24.9671 51.05 24.9939C51.0295 25.0207 51.0011 25.0413 50.9683 25.0531C50.9355 25.0649 50.8998 25.0673 50.8655 25.0601C50.8313 25.0529 50.8 25.0364 50.7757 25.0126C50.7513 24.9889 50.7349 24.9589 50.7286 24.9264C50.7222 24.8939 50.7261 24.8604 50.7398 24.8301C50.7535 24.7997 50.7765 24.7737 50.8057 24.7555C50.835 24.7373 50.8693 24.7276 50.9044 24.7275C50.9284 24.728 50.952 24.7328 50.9739 24.7418C50.9959 24.7508 51.0157 24.7638 51.0324 24.78C51.049 24.7962 51.062 24.8154 51.0708 24.8363C51.0795 24.8573 51.0838 24.8797 51.0834 24.9022V24.9022Z" fill="#263238"/>
<path d="M50.2382 24.8809L50.0693 25.8843L50.6602 25.8192L50.2382 24.8809Z" fill="#F28F8F"/>
<path d="M56.3973 36.2764L52.7592 34.3013C52.7273 34.2842 52.6912 34.2751 52.6545 34.2751C52.6178 34.2751 52.5817 34.2842 52.5498 34.3013L46.1699 37.7657L49.9111 39.8044L56.3973 36.2764Z" fill="#37474F"/>
<path d="M49.8768 39.5078L47.915 38.444L53.6517 35.3289L55.6236 36.3879L49.8768 39.5078Z" fill="#263238"/>
<path d="M48.9126 36.5477L48.9497 36.5668L49.9104 37.0892L51.6205 36.1603L51.656 36.1413L50.6582 35.5999L48.9126 36.5477Z" fill="#263238"/>
<path d="M48.9507 36.5668L49.9113 37.0891L51.6215 36.1603L50.6592 35.6379L48.9507 36.5668Z" fill="#263238"/>
<path d="M46.1699 37.7653V37.8463C46.1694 37.9036 46.1847 37.96 46.2143 38.0101C46.2439 38.0602 46.2868 38.1022 46.3388 38.1321L49.7288 39.9723C49.7821 40.0014 49.8427 40.0168 49.9043 40.0168C49.966 40.0168 50.0266 40.0014 50.0799 39.9723L56.215 36.638C56.2669 36.608 56.3097 36.566 56.3392 36.5159C56.3688 36.4659 56.3842 36.4095 56.3838 36.3522V36.2712L49.9111 39.804L46.1699 37.7653Z" fill="#263238"/>
<path d="M49.9111 39.8045V40.0236C49.9706 40.023 50.0288 40.0076 50.08 39.9791L56.215 36.6448C56.2669 36.6149 56.3097 36.5728 56.3393 36.5227C56.3688 36.4727 56.3842 36.4163 56.3839 36.359V36.2781L49.9111 39.8045Z" fill="#263238"/>
<path d="M50.0098 39.8472C50.0678 39.868 50.13 39.8764 50.192 39.8718C50.2539 39.8671 50.3139 39.8495 50.3677 39.8202L56.4758 36.5034C56.5288 36.4748 56.5743 36.4355 56.609 36.3882C56.6438 36.341 56.6669 36.287 56.6767 36.2303L57.352 32.4816C57.3536 32.46 57.3536 32.4382 57.352 32.4165C57.3516 32.3122 57.3073 32.2123 57.2287 32.1387L50.8809 35.5857C50.8419 35.6069 50.8083 35.636 50.7826 35.6708C50.7569 35.7057 50.7397 35.7455 50.7323 35.7873L50.0098 39.8472Z" fill="#263238"/>
<path d="M49.9111 39.8046L49.9533 39.8268C49.972 39.8368 49.9911 39.8458 50.0107 39.8538L50.7333 35.7939C50.7407 35.7521 50.7579 35.7123 50.7836 35.6775C50.8093 35.6426 50.8428 35.6135 50.8819 35.5923L57.2297 32.1453C57.2038 32.1226 57.1755 32.1024 57.1453 32.085L50.7856 35.532C50.7464 35.5532 50.7127 35.5822 50.6867 35.6171C50.6607 35.6519 50.6432 35.6917 50.6354 35.7336L49.9111 39.8046Z" fill="#455A64"/>
<path d="M53.4493 36.3846C53.5454 36.0712 53.7661 35.8046 54.0655 35.64C54.361 35.4812 54.5636 35.5527 54.5197 35.7988C54.4236 36.1122 54.2029 36.3788 53.9035 36.5434C53.608 36.7101 53.4054 36.6291 53.4493 36.3846Z" fill="#37474F"/>
<path d="M45.4667 33.3285C45.4667 33.3285 46.5623 37.2979 47.0249 37.5821C47.4875 37.8663 48.3485 38.0743 48.7604 38.2172C49.1724 38.3601 49.3598 38.5554 49.2888 38.6094C49.2179 38.6634 48.6237 38.7221 48.4177 38.7904C48.2118 38.8586 48.4785 39.1714 48.9343 39.5033C49.3901 39.8351 49.7784 39.8049 49.7278 40.0256C49.6771 40.2463 48.6608 40.467 47.8032 39.9939C46.9456 39.5207 46.6856 38.8825 46.174 38.341C45.6625 37.7996 44.4942 35.5498 44.084 34.5654C44.084 34.5654 44.1228 32.7363 44.7593 32.8522C45.3958 32.9681 45.4667 33.3285 45.4667 33.3285Z" fill="#FFA8A7"/>
<path d="M50.6802 41.3717C50.7578 41.5479 51.0263 42.0338 51.6239 42.0068L53.0927 40.7144L50.6802 41.3717Z" fill="#FBC105"/>
<path opacity="0.1" d="M50.6802 41.3717C50.7578 41.5479 51.0263 42.0338 51.6239 42.0068L53.0927 40.7144L50.6802 41.3717Z" fill="black"/>
<path d="M51.1237 43.6455C51.1096 43.2298 51.1824 42.8154 51.3381 42.4261V42.4261C51.2674 42.4725 51.1859 42.5023 51.1003 42.5128C51.0148 42.5233 50.9279 42.5142 50.8469 42.4864C50.3556 42.3483 50.2323 41.7037 50.31 41.564C50.2391 41.6227 50.1648 41.6783 50.0922 41.7354C49.8594 41.8824 49.6937 42.1062 49.6279 42.3626C49.5942 42.5642 49.6938 42.7627 49.7427 42.9628C49.8373 43.3438 49.7427 43.7408 49.7275 44.1314C49.731 44.3018 49.7715 44.4698 49.8468 44.6249C49.922 44.78 50.0302 44.919 50.1648 45.0332C50.3032 45.1602 50.4522 45.2765 50.6105 45.3809C50.6681 45.4418 50.7443 45.4844 50.8287 45.5028C50.9131 45.5212 51.0016 45.5145 51.0818 45.4837C51.162 45.4529 51.23 45.3994 51.2765 45.3306C51.3231 45.2619 51.3458 45.1813 51.3415 45.0999C51.2774 44.6045 51.1541 44.1615 51.1237 43.6455Z" fill="#263238"/>
<path d="M51.6806 41.9241C51.6351 42.005 51.5945 42.0828 51.5591 42.1606C51.6013 42.0844 51.6418 42.005 51.6806 41.9241Z" fill="#37474F"/>
<path d="M50.3057 41.5636L50.3381 41.5366L50.3057 41.5636Z" fill="#37474F"/>
</svg>
